<svg version="1.1" id="Layer_1" xmlns="http://www.w3.org/2000/svg" xmlns:xlink="http://www.w3.org/1999/xlink" x="0px" y="0px"
	 width="100%" viewBox="0 300 1024 450" enable-background="new 0 300 1024 450" xml:space="preserve">
<path fill="#000000" opacity="1.000000" stroke="none" 
	d="
M178.708038,595.307861 
	C183.659531,603.832336 190.838867,609.876709 197.472717,616.420532 
	C199.080521,618.006470 202.360992,619.638855 199.894730,622.322693 
	C197.246323,625.204712 194.591980,623.603333 192.457870,620.828247 
	C185.831589,612.211548 178.213135,604.532288 170.022171,597.404419 
	C168.333969,595.935364 166.740845,594.277161 164.542297,597.191589 
	C170.639328,606.789246 179.327927,614.799255 183.964569,626.157532 
	C180.296814,626.312988 178.994904,624.141357 177.637680,622.496765 
	C172.974930,616.846863 168.498703,611.042603 163.973572,605.279724 
	C162.217346,603.043152 160.824188,600.977417 157.079132,601.976196 
	C153.772141,602.858093 151.823532,599.490723 149.908691,597.334900 
	C139.287277,585.376404 128.860641,573.245239 118.271812,561.257568 
	C102.837830,543.784607 88.232300,525.530029 70.468544,510.240448 
	C68.956947,508.939362 67.364395,507.727661 65.758087,506.544159 
	C65.279549,506.191650 64.625763,506.076965 63.063065,505.467499 
	C63.051853,536.308411 67.231857,566.294373 68.449715,596.174438 
	C66.193504,597.311279 65.601456,594.704224 63.795959,595.137146 
	C62.233330,598.447876 62.377686,601.908142 62.588478,605.631226 
	C63.190445,616.263367 65.596382,626.729675 65.322060,637.432190 
	C65.232765,640.915833 64.618904,644.155273 61.875530,648.529724 
	C58.497742,625.758484 55.333614,604.427612 52.169487,583.096741 
	C51.893192,583.122437 51.616894,583.148132 51.340599,583.173828 
	C52.053684,591.255127 52.597149,599.356018 53.524864,607.412659 
	C54.570057,616.489441 55.988785,625.522705 57.176941,634.583862 
	C57.391712,636.221802 57.542622,638.278076 55.318287,638.568420 
	C53.351040,638.825317 53.274883,636.831543 52.759903,635.464355 
	C49.612362,627.108154 48.751606,618.272339 48.019657,609.536072 
	C45.598591,580.639099 45.466354,551.659302 45.703632,522.678223 
	C45.720879,520.571594 46.147568,518.359009 44.674469,515.781616 
	C38.183151,518.546326 35.184769,526.206543 27.290346,528.817810 
	C28.878925,521.107178 34.851318,517.780579 38.204960,512.619263 
	C37.800365,510.718719 36.108616,512.775452 35.083065,511.215790 
	C34.819695,508.747406 36.984097,506.935150 38.598133,504.987976 
	C41.975399,500.913696 43.417122,496.438629 42.722469,491.106842 
	C41.648586,482.864258 40.606239,474.601868 40.016422,466.314697 
	C37.722527,434.084717 36.013786,401.813965 37.986462,369.514893 
	C38.632378,358.939209 39.793785,348.287628 43.089611,338.067322 
	C43.952454,335.391693 44.912415,332.758606 48.254654,330.048553 
	C49.650234,339.315887 46.012318,347.186432 45.635593,355.464508 
	C47.242046,356.583160 49.079239,354.680389 50.662586,356.298065 
	C51.771919,349.370850 52.779045,343.066223 53.792480,336.762604 
	C54.114288,334.760956 54.810356,332.888184 55.962612,331.224548 
	C56.681240,330.186981 58.270615,329.300171 58.811916,330.445465 
	C60.165035,333.308289 62.790501,336.008636 62.356140,339.269379 
	C58.834541,365.706299 57.263508,392.242188 58.124435,418.893738 
	C58.624252,434.366486 59.492149,449.828430 60.314903,465.288818 
	C60.517460,469.095062 60.976665,472.971924 64.921577,475.527466 
	C71.497986,469.939880 77.534599,463.845978 83.168839,457.355774 
	C98.761238,439.394592 118.520462,425.998718 135.499008,409.542084 
	C143.381958,401.901520 151.998291,395.013275 160.356339,387.870728 
	C162.018173,386.450531 163.703629,384.546600 167.489243,385.791016 
	C162.422226,394.310089 153.698486,398.989349 149.109299,407.316010 
	C161.223358,399.706604 170.765732,388.643311 182.980759,381.335938 
	C184.989899,382.827972 181.963959,383.679108 183.227890,385.112579 
	C198.977448,372.885498 214.737228,360.607178 231.417145,348.896515 
	C233.214661,352.675629 230.837189,353.823395 229.448151,355.128845 
	C218.011383,365.877319 205.036774,374.725220 192.880341,384.586029 
	C181.887024,393.503387 170.154175,401.746338 160.356171,411.847198 
	C143.555298,429.167267 122.374069,441.138275 105.657631,458.416443 
	C103.928932,460.203247 102.130043,461.922150 100.495583,463.846466 
	C111.399338,456.119690 120.340630,445.629456 133.045059,439.557556 
	C133.730667,443.285431 131.533600,444.454193 130.035156,445.755432 
	C116.957291,457.112305 103.791260,468.367676 90.646194,479.647095 
	C89.761681,480.406128 88.894745,481.209717 87.917572,481.832458 
	C84.011078,484.322021 83.878212,486.491028 87.490883,489.806976 
	C100.501045,501.748627 113.228340,514.013672 126.851364,525.257446 
	C145.615738,540.744629 159.417709,560.332886 173.239990,579.979858 
	C176.500061,584.613647 177.655411,589.683411 178.708038,595.307861 
M146.258743,555.176941 
	C147.932678,556.577026 149.606628,557.977051 151.280563,559.377136 
	C143.235062,547.685059 92.332436,499.551605 84.611351,495.580048 
	C92.480461,505.916168 100.044632,515.832886 110.810387,523.456970 
	C123.527649,532.463196 133.537430,544.889221 146.258743,555.176941 
z"/>
<path fill="#000000" opacity="1.000000" stroke="none" 
	d="
M604.161438,383.632446 
	C605.066589,381.446716 604.482422,378.139160 607.690857,378.793365 
	C610.317139,379.328857 609.921509,382.124939 609.945312,384.266327 
	C609.956360,385.263062 609.876282,386.264557 609.779236,387.258179 
	C609.050903,394.715637 610.298401,396.417084 617.699036,395.621918 
	C639.040894,393.328857 659.885864,397.280243 680.554077,401.192780 
	C692.502869,403.454742 702.998108,411.068604 705.410461,423.619751 
	C706.992432,431.850830 706.169922,441.492218 700.489929,449.170166 
	C698.431946,451.952087 695.659668,454.137360 694.059814,457.369232 
	C693.036560,459.436279 690.591431,459.756500 688.470276,460.259613 
	C679.919922,462.287354 671.373718,464.332397 661.254272,466.745911 
	C669.771667,468.238373 676.852600,469.699921 683.305481,472.809631 
	C691.077271,476.554901 698.847534,480.450623 706.094604,485.098083 
	C714.166260,490.274384 718.615845,505.451385 715.415527,514.704102 
	C707.578796,537.361328 692.184021,552.316589 669.216553,559.261108 
	C662.798462,561.201660 656.715393,563.869080 650.757629,566.820435 
	C639.653809,572.320923 627.519836,574.824463 615.949158,578.960754 
	C603.901062,583.267761 603.900208,583.892456 605.563965,597.675720 
	C605.661255,598.482117 606.159912,599.232239 606.344299,600.037720 
	C606.619446,601.240051 606.550659,602.460205 605.260986,603.044312 
	C603.856018,603.680664 603.040466,602.699341 602.519836,601.611633 
	C601.163391,598.777710 599.405579,596.170288 598.756287,592.958801 
	C597.545166,586.968323 595.424133,585.840698 589.328186,586.790466 
	C587.007935,587.151917 583.483398,589.677490 582.537109,585.777222 
	C581.672974,582.215149 585.605896,581.710938 588.153503,580.680969 
	C590.312073,579.808350 592.492249,578.983398 594.616089,578.032776 
	C596.130310,577.355164 596.854797,576.134399 596.639893,574.404480 
	C596.434814,572.753418 595.373047,572.270203 593.900208,572.074158 
	C590.245728,571.587769 589.598083,568.542175 589.259460,565.798523 
	C587.633545,552.623779 586.051453,539.438904 584.775391,526.226624 
	C582.315796,500.760437 581.535645,475.152130 577.274536,449.830353 
	C575.323242,438.234497 573.556519,426.494629 573.816956,414.614868 
	C573.953308,408.398621 575.165649,402.396057 577.064514,396.512390 
	C577.646362,394.709625 578.517395,392.935333 580.807800,393.190735 
	C583.004211,393.435669 583.720947,395.272919 584.000793,397.143616 
	C584.557007,400.861694 584.964050,404.602112 586.240356,408.299316 
	C586.515564,402.302917 586.757324,396.304657 587.082520,390.310974 
	C587.212708,387.911469 586.552795,384.538269 589.852600,384.207123 
	C593.299988,383.861115 594.772400,387.101715 595.930908,389.859406 
	C596.343933,390.842499 596.256775,392.226746 595.944031,393.295013 
	C591.573669,408.223145 592.394531,423.585297 591.856995,438.856415 
	C591.604614,446.025757 592.336487,453.091248 592.730957,460.230713 
	C595.317993,453.571198 594.876648,446.470398 595.581299,439.606842 
	C596.428345,431.356354 598.133667,423.144318 597.726135,414.771149 
	C597.591492,412.004761 598.066711,409.355133 595.700073,406.905609 
	C593.852783,404.993683 594.881897,402.250702 596.863892,400.716003 
	C602.398560,396.430298 603.611938,390.429993 604.161438,383.632446 
M629.921875,563.399841 
	C636.994385,559.651123 643.771790,555.484314 650.169434,550.616272 
	C660.915588,542.439453 672.092102,534.867065 684.304382,528.983582 
	C687.472168,527.457458 689.550354,525.125488 691.102295,522.003113 
	C695.181152,513.797119 694.909058,505.678772 691.271545,497.433502 
	C689.536133,493.499786 686.908936,491.070587 682.571472,490.031952 
	C670.130310,487.052826 657.881104,483.121857 645.326843,480.814362 
	C635.753174,479.054626 626.148926,476.542877 616.202148,477.228943 
	C608.816711,477.738403 608.311768,478.142151 608.106384,485.337189 
	C608.063721,486.832489 607.922119,488.326904 607.778687,489.817139 
	C605.356384,514.985474 602.391479,540.121704 603.245483,565.484375 
	C603.300842,567.131165 603.632874,568.771118 603.874695,570.408569 
	C604.332153,573.505249 605.894653,574.264526 608.771118,572.934570 
	C615.565430,569.793274 622.417542,566.776917 629.921875,563.399841 
M644.711975,455.047668 
	C655.965576,452.217468 667.372192,449.876099 678.428711,446.416107 
	C688.957092,443.121429 690.271973,440.325836 689.745422,429.379791 
	C689.662537,427.657440 689.599304,425.784424 688.093445,424.873444 
	C680.430969,420.238007 673.338928,413.711487 663.167725,416.682587 
	C661.489136,417.172913 659.883484,416.777222 658.253296,416.394653 
	C651.445862,414.797180 644.565186,413.824677 637.548523,413.934052 
	C628.376953,414.077087 619.424194,416.003815 610.375916,417.157135 
	C607.632263,417.506866 607.492004,419.243317 607.469299,421.442535 
	C607.369629,431.091492 607.098816,440.738739 607.001648,450.387726 
	C606.958801,454.644592 605.532410,458.914886 607.054138,463.725311 
	C619.608582,461.781586 631.574036,457.696350 644.711975,455.047668 
M583.126648,443.609192 
	C583.690369,433.334320 580.988159,423.350311 580.485352,413.165222 
	C579.170776,423.095428 581.096375,432.879761 581.753235,442.715240 
	C581.777283,443.074371 581.319824,444.999603 583.126648,443.609192 
M643.724487,461.796570 
	C643.569092,462.879272 644.451843,462.787628 645.002869,462.761261 
	C653.445190,462.356995 661.344543,459.729309 669.077332,456.315857 
	C660.776489,458.024658 652.475586,459.733429 643.724487,461.796570 
z"/>
<path fill="#000000" opacity="1.000000" stroke="none" 
	d="
M476.201965,537.867432 
	C478.951874,556.880920 479.319397,575.798462 483.601990,594.078857 
	C484.987732,599.994019 483.017548,604.951782 483.514374,610.842407 
	C477.980835,609.526306 475.702087,605.832214 473.883362,601.112061 
	C472.309723,604.127502 474.385071,606.890808 472.846680,609.414551 
	C470.061493,609.574646 469.166931,607.718384 468.567566,605.527222 
	C467.628479,602.093811 467.376160,598.502930 468.028656,595.111206 
	C468.997162,590.076538 467.188080,586.067505 464.854553,581.911987 
	C462.086334,576.982483 459.602905,571.885071 457.184418,566.771362 
	C456.302246,564.906128 455.013153,562.949585 456.224854,560.118713 
	C461.115540,561.414185 460.824677,566.967834 464.287231,569.686951 
	C460.456848,560.347290 460.648865,550.562683 458.585938,541.230591 
	C457.522614,536.420410 457.763977,531.289124 455.420105,526.768616 
	C454.823303,525.617615 455.249969,524.519165 455.413605,523.368530 
	C455.960724,519.521240 455.547211,515.841614 454.172913,512.112183 
	C453.253265,509.616516 452.054108,509.036621 449.738892,509.627167 
	C446.135376,510.546356 442.446167,510.143982 438.789886,510.246674 
	C436.529510,510.310181 434.490112,509.673859 432.773285,508.210876 
	C429.954559,505.808899 430.410736,502.992676 433.969177,501.889496 
	C438.098755,500.609222 442.296936,499.516541 446.719299,499.750732 
	C448.806091,499.861206 450.958038,499.842773 453.006104,497.682373 
	C449.769836,496.700928 447.021393,497.273956 444.298767,497.516327 
	C442.296356,497.694519 440.430054,497.435822 440.086761,495.106628 
	C439.783813,493.051025 441.443573,492.273560 443.108246,491.736755 
	C443.742004,491.532410 444.384705,491.344910 445.035217,491.205170 
	C452.807526,489.535797 452.798370,489.538483 452.799255,481.383484 
	C452.802002,455.900177 449.722198,430.500427 450.730103,404.992615 
	C450.833099,402.385925 449.751648,399.193176 453.532806,397.701141 
	C456.441986,400.508331 455.572266,404.257935 456.422394,407.842529 
	C458.583862,397.828400 456.454376,387.502930 460.018341,377.143463 
	C463.152283,380.042572 463.223511,382.965607 463.081787,385.664459 
	C462.061188,405.098724 467.613953,423.980255 467.893341,443.251495 
	C468.067444,455.260498 470.335052,467.070740 470.239471,479.070343 
	C470.166931,488.172485 470.988464,488.736572 479.840759,488.127747 
	C490.456940,487.397644 501.077148,486.635254 511.708801,486.272095 
	C515.264771,486.150574 516.091309,484.683319 515.768738,481.687347 
	C514.665344,471.436584 513.339111,461.204559 512.490723,450.932953 
	C511.451172,438.347443 510.772095,425.731354 510.024139,413.123291 
	C509.885376,410.784882 510.160675,408.434509 512.200867,406.747284 
	C513.997559,405.261414 513.705505,403.166229 513.710938,401.186035 
	C513.721497,397.353577 513.707703,393.520813 513.672058,389.688477 
	C513.640137,386.254761 513.631409,382.899231 517.906799,381.705048 
	C519.149048,381.358063 519.443237,380.071442 519.833618,378.957794 
	C520.384399,377.386566 521.425415,376.339691 523.204346,376.670654 
	C525.047119,377.013519 525.448425,378.598663 525.484680,380.113922 
	C525.556274,383.105713 525.645142,386.125763 525.331665,389.092377 
	C524.563599,396.361206 527.162598,402.668854 530.577209,408.773743 
	C531.275452,410.022003 531.368958,411.301208 531.291748,412.630646 
	C530.440002,427.300446 531.723816,441.947754 532.525146,456.547058 
	C532.975037,464.744995 533.642029,473.088776 535.043823,481.284485 
	C535.514343,484.035156 536.799133,484.960876 539.349182,484.934692 
	C543.847595,484.888519 548.347961,484.873932 552.845337,484.958221 
	C554.946228,484.997589 557.006714,485.526611 557.138489,488.137970 
	C557.266785,490.681885 555.274536,491.481201 553.263245,491.957336 
	C550.153442,492.693481 546.565552,491.640503 542.755493,495.545441 
	C552.335938,494.072998 560.474670,497.098236 568.843262,495.725891 
	C569.983887,495.538849 571.174194,495.502380 572.327942,495.585175 
	C573.922119,495.699615 575.336487,496.354736 575.631348,498.095642 
	C575.976440,500.132965 574.640442,501.370728 572.906128,501.662537 
	C568.831604,502.348236 564.713318,502.798950 560.600464,503.226074 
	C554.663818,503.842560 548.721436,504.417938 542.771790,504.888916 
	C538.394348,505.235443 537.880432,507.902496 538.283875,511.508392 
	C538.747070,515.648315 541.567993,514.242981 543.914917,514.170410 
	C547.741394,514.052124 551.571655,513.894470 555.396606,513.963135 
	C557.058167,513.992920 559.055237,514.490845 559.182190,516.505920 
	C559.320374,518.697754 557.236023,518.976624 555.610779,519.163391 
	C551.973206,519.581604 548.317993,520.045044 544.665771,520.083435 
	C540.862732,520.123474 539.565491,521.861877 540.135559,525.396545 
	C542.276428,538.671814 544.446472,551.942444 546.561218,565.221863 
	C547.814453,573.091431 549.028381,580.968018 550.154663,588.856445 
	C550.373657,590.390503 550.758850,591.744629 551.632263,593.020264 
	C552.086304,593.683289 552.732178,595.038940 552.546875,595.194397 
	C548.694641,598.427368 552.189026,601.300781 553.193848,604.235474 
	C548.476074,605.039856 545.128662,602.778137 543.272583,597.401428 
	C540.290100,588.761536 538.835022,579.688416 535.718811,571.061523 
	C530.351501,556.202637 526.165283,540.966980 522.085693,525.714844 
	C521.383850,523.090759 520.457275,521.915649 517.703247,522.502258 
	C505.620453,525.075806 493.240173,525.130615 481.033966,526.707397 
	C476.786346,527.256042 474.260132,527.946472 475.979584,532.944458 
	C476.445587,534.299011 476.142731,535.917969 476.201965,537.867432 
M519.842224,512.102417 
	C520.000916,508.121552 517.904724,506.809875 514.211060,507.253082 
	C502.999695,508.598236 491.657654,508.128296 480.456573,509.963196 
	C474.014069,511.018555 473.778137,510.708801 474.433807,517.079285 
	C474.581573,518.514954 474.282410,520.123718 475.848755,521.585449 
	C489.381104,519.923279 503.162964,518.067505 517.065735,517.444580 
	C519.702332,517.326477 520.816711,515.536011 519.842224,512.102417 
M467.829132,548.882935 
	C467.829132,547.356018 467.829132,545.829163 467.829132,544.302246 
	C467.632935,544.308350 467.436737,544.314453 467.240540,544.320557 
	C467.240540,549.422546 467.240540,554.524475 467.240540,559.626465 
	C467.436676,559.626526 467.632782,559.626648 467.828918,559.626709 
	C467.828918,556.337646 467.828918,553.048584 467.829132,548.882935 
z"/>
<path fill="#000000" opacity="1.000000" stroke="none" 
	d="
M387.612488,469.119751 
	C390.834076,470.754639 394.496094,471.598877 393.068817,477.033447 
	C405.773285,470.978699 410.950562,479.799866 416.359833,487.687866 
	C420.500854,493.726440 424.013458,500.193817 428.101776,506.271240 
	C435.788940,517.698486 436.085114,529.772095 432.309052,542.561401 
	C430.653900,548.167480 427.457123,553.536072 428.965088,559.891418 
	C429.415527,561.789795 427.836395,563.635925 426.803223,565.359436 
	C419.175781,578.083740 407.047821,584.673889 393.808228,589.918518 
	C383.746063,593.904541 373.189850,596.266724 362.955719,599.703796 
	C353.211609,602.976318 342.876343,604.342834 332.473083,603.962036 
	C330.857422,603.902893 328.628723,603.761475 327.771027,602.742554 
	C324.060638,598.335205 318.788910,598.262512 313.905426,596.908203 
	C309.522522,595.692810 304.792999,594.941162 301.390411,590.628967 
	C303.761353,589.123230 306.110382,587.664673 304.940979,584.709412 
	C316.662903,583.424927 327.331116,579.492615 337.737335,575.306152 
	C360.936005,565.973328 384.855774,558.731812 408.436829,550.555847 
	C418.013733,547.235474 418.219879,540.313660 418.577423,533.505920 
	C419.177246,522.086792 414.334412,512.092529 406.879120,503.577728 
	C403.717865,499.967255 399.849976,496.967529 396.239807,493.761719 
	C394.605042,492.309998 392.741119,491.155762 390.451080,491.087189 
	C380.199829,490.780304 370.507324,487.623230 360.725128,485.077148 
	C346.129120,481.278076 331.088684,479.397369 316.702789,474.586578 
	C319.956055,477.444733 324.493378,478.180878 327.681458,481.660156 
	C325.125977,483.651184 322.500793,482.466797 320.497498,481.850616 
	C313.938995,479.833313 307.754456,476.953552 303.192139,471.437653 
	C301.936035,469.919006 300.329559,468.674500 298.805481,467.397736 
	C297.353485,466.181427 295.874573,464.806152 295.971252,462.893127 
	C296.333740,455.721283 294.449951,448.940125 292.832245,442.083374 
	C291.308258,435.624084 294.164368,430.729614 299.601715,427.884155 
	C317.406952,418.566315 334.615173,407.784332 354.937836,404.304535 
	C360.919128,403.280304 366.948822,403.416626 372.873993,403.847534 
	C386.937073,404.870148 401.104706,405.697723 414.492340,410.799500 
	C417.092896,411.790527 421.841614,412.350433 420.986481,415.474335 
	C419.997101,419.088501 416.630524,414.748901 414.112732,415.212219 
	C410.952179,415.793823 408.218231,413.047607 403.948151,413.510132 
	C409.121277,415.585999 413.405701,417.585968 413.230499,423.593109 
	C412.318695,423.593109 411.502869,423.853058 411.101685,423.554962 
	C401.769836,416.621429 391.362976,418.478241 380.847748,419.275787 
	C358.056915,421.004395 336.756134,427.492798 316.504974,437.827698 
	C313.819092,439.198395 311.207245,440.631287 309.998413,443.538788 
	C310.381805,444.944458 311.485199,444.930115 312.441864,444.994171 
	C327.816986,446.023956 341.910370,451.539764 355.887512,457.426910 
	C366.172516,461.758942 376.744202,465.296906 387.612488,469.119751 
M334.257416,457.317261 
	C327.184052,455.499847 320.272308,452.948669 312.810211,452.656921 
	C336.075378,463.842499 359.847778,473.459595 385.378021,478.131683 
	C369.579956,468.850800 352.741272,462.139008 334.257416,457.317261 
M359.619843,577.126465 
	C375.608856,573.948486 389.070557,564.995056 403.411926,558.076355 
	C384.426239,564.621887 365.440552,571.167419 346.454865,577.712952 
	C350.765533,578.910889 354.773346,578.094116 359.619843,577.126465 
M383.973022,575.059509 
	C384.523682,574.661865 385.648804,574.827026 385.362762,573.312744 
	C380.772278,575.284241 376.285095,577.211365 371.797913,579.138489 
	C371.921448,579.433655 372.044952,579.728821 372.168488,580.023987 
	C375.909302,578.456787 379.650116,576.889587 383.973022,575.059509 
M342.255585,584.824646 
	C344.440338,584.824646 346.625092,584.824646 348.809845,584.824646 
	C348.822632,584.578857 348.835388,584.333130 348.848145,584.087341 
	C345.681946,583.585449 342.515778,583.083496 339.044434,582.533203 
	C339.620392,584.265015 340.651947,584.388184 342.255585,584.824646 
z"/>
<path fill="#000000" opacity="1.000000" stroke="none" 
	d="
M288.353821,581.226685 
	C288.476471,582.109863 288.604980,582.595764 288.667328,583.089966 
	C288.984314,585.601929 290.723846,589.038757 287.197266,589.971680 
	C283.549835,590.936646 284.181854,586.964417 283.321930,584.866516 
	C273.730133,561.465820 266.532104,537.068604 254.112747,514.840393 
	C252.826584,512.538391 251.532547,511.488068 248.638351,511.781342 
	C241.695877,512.484802 234.705429,512.745056 227.728943,513.067444 
	C225.007065,513.193298 223.629807,514.104736 223.147079,517.090149 
	C221.348297,528.214417 219.256241,539.279724 217.869186,550.483154 
	C217.125229,556.492310 216.884445,562.484314 217.298340,568.403198 
	C217.735168,574.649780 215.382401,580.456360 215.603561,586.642456 
	C215.746460,590.639648 212.477310,588.398315 210.618134,588.110596 
	C210.052719,588.816650 209.633545,589.326843 209.228729,589.848145 
	C207.916748,591.537598 206.845276,593.757446 204.205963,593.291199 
	C201.468430,592.807678 200.891510,590.274109 200.006241,588.150024 
	C197.204956,581.428650 196.520615,574.329041 196.312347,567.146301 
	C195.907547,553.185913 194.461868,539.190979 197.695374,525.352966 
	C198.034088,523.903442 198.408615,522.456482 198.871887,521.042908 
	C200.523499,516.003540 199.021393,513.552002 193.871979,514.687622 
	C186.187057,516.382385 178.194351,515.079407 170.655457,517.648071 
	C169.133514,518.166626 167.364990,518.016357 165.706955,518.064270 
	C164.192612,518.108093 162.479309,518.081299 161.833252,516.436401 
	C161.160690,514.723999 162.560898,513.820740 163.730545,512.792725 
	C165.936157,510.854218 175.167435,506.411041 178.748215,505.633087 
	C187.356369,503.762939 195.934555,501.753296 204.552444,499.930542 
	C206.735931,499.468719 207.651337,498.256927 207.907684,496.223358 
	C208.489304,491.609741 209.237457,487.012238 209.662994,482.384735 
	C211.092361,466.841156 212.739731,451.330933 215.710342,435.988983 
	C216.976349,429.450653 218.712326,423.007874 221.137344,416.846405 
	C222.790741,412.645416 222.755096,408.902039 221.206665,404.825684 
	C218.762878,398.392212 217.837097,391.618256 217.411911,384.795380 
	C217.294159,382.905884 216.989441,380.153717 219.290512,379.611389 
	C222.118393,378.944855 222.946487,381.748291 223.094559,383.790894 
	C223.390991,387.880432 227.673904,387.872681 229.608337,390.580750 
	C232.994904,395.321716 233.963913,400.438538 235.424271,405.613159 
	C235.919907,407.369385 236.365540,409.139679 236.959534,411.376068 
	C241.254166,407.471008 242.169266,410.312592 242.492310,413.941772 
	C242.815918,417.577301 242.991638,421.226471 243.201248,424.871460 
	C243.371521,427.832123 242.248962,431.202972 246.898407,432.199036 
	C248.510788,432.544464 248.281052,435.039032 248.243057,436.690460 
	C248.031570,445.883881 249.234100,454.917542 251.250183,463.859650 
	C251.502365,464.978210 251.627655,466.449097 252.379608,467.080261 
	C258.683105,472.371490 259.204376,479.856812 260.308868,487.153473 
	C261.327179,493.880890 262.574005,494.500549 269.430786,494.174500 
	C283.699036,493.495911 297.917542,490.547028 312.253723,492.764069 
	C316.815399,493.469543 321.589264,493.335175 325.857605,495.570709 
	C327.012268,496.175446 328.445221,496.399658 328.743256,498.153290 
	C328.040436,500.489349 326.096222,500.178528 324.309784,499.926910 
	C312.906708,498.320618 301.502899,497.343658 290.010162,499.114380 
	C288.597046,499.332123 287.067566,498.794617 285.132019,498.548645 
	C285.712524,502.633209 282.817871,505.668427 280.736359,507.893311 
	C278.172302,510.633881 272.621399,508.122864 268.905029,511.217072 
	C269.338013,514.768188 271.485840,517.611450 273.257660,520.526428 
	C280.028748,531.666382 285.783020,543.303467 290.201996,555.548828 
	C293.302216,564.139832 293.673889,572.756714 288.353821,581.226685 
M243.379700,487.963196 
	C239.139481,475.282410 235.937836,462.311890 232.447113,449.276733 
	C229.189056,464.803497 232.195328,480.843628 227.561783,496.630127 
	C233.875244,497.094635 239.546936,497.374664 245.027145,495.205414 
	C245.474976,492.637878 243.931046,490.812653 243.379700,487.963196 
M221.384384,464.829803 
	C221.181290,458.805328 223.514679,452.924347 222.434708,446.836273 
	C219.328949,459.403564 218.736969,472.255737 218.216080,485.134705 
	C219.186813,478.647858 220.157562,472.160980 221.384384,464.829803 
M284.478729,562.935181 
	C285.159424,564.344482 284.649933,566.216125 286.807037,567.933411 
	C286.724579,561.155640 284.671143,555.701965 281.025177,550.645142 
	C282.116699,554.494080 283.208191,558.342957 284.478729,562.935181 
z"/>
<path fill="#000000" opacity="1.000000" stroke="none" 
	d="
M829.982971,604.987305 
	C850.982483,604.455994 870.274963,610.279358 889.987732,614.959717 
	C908.839355,619.435547 926.206360,627.023376 943.738342,634.478577 
	C955.679932,639.556580 966.157837,646.960266 972.529297,658.918274 
	C973.591919,660.912598 975.563416,661.873901 977.544495,662.855347 
	C982.914978,665.515747 988.334412,668.144775 992.838928,672.207214 
	C994.505798,673.710510 996.946716,675.081360 995.875427,677.921936 
	C994.746704,680.915039 992.043335,680.308350 988.639343,679.544800 
	C992.766724,682.846069 996.028381,685.391052 999.212219,688.029968 
	C1000.684692,689.250366 1003.008301,690.553406 1000.960938,692.795044 
	C999.246399,694.672302 996.962646,694.230103 995.112488,692.634338 
	C990.067810,688.283081 985.095093,683.848511 980.066711,679.478210 
	C977.001892,676.814453 973.886841,674.208618 970.470154,671.870911 
	C974.223816,676.938171 976.658508,682.520386 978.461914,688.403259 
	C978.886475,689.788269 979.732178,691.459045 977.789001,692.303894 
	C976.246216,692.974609 975.280945,691.658142 974.586548,690.555115 
	C973.348389,688.588440 971.992981,686.612549 971.221802,684.449707 
	C968.526855,676.891113 963.213135,671.585327 957.063782,666.787109 
	C942.655762,655.544617 925.840027,649.104980 909.157898,642.359558 
	C898.819275,638.179199 888.660339,633.495300 878.143982,629.831970 
	C869.350037,626.768494 860.007385,626.146057 850.671570,625.569397 
	C844.126831,625.165100 837.663879,623.334412 831.036011,623.118713 
	C828.804504,623.046082 826.351135,622.269348 825.509827,625.649414 
	C825.219482,626.816162 823.640320,626.932251 822.440308,626.627563 
	C805.967834,622.446167 790.510132,626.954956 775.232666,632.340393 
	C766.603271,635.382263 758.098572,638.808533 749.658630,642.349915 
	C737.668335,647.381226 727.597534,655.225220 718.407227,664.311157 
	C715.390015,667.294067 714.433655,671.902954 710.590210,674.605896 
	C707.968872,671.328613 710.611633,669.009766 711.400330,665.683838 
	C700.074097,674.644958 693.951965,686.794983 686.377930,698.921814 
	C683.504089,693.300232 687.128723,689.921021 687.870911,685.865906 
	C684.225708,688.470215 684.264404,693.200684 680.889099,695.966553 
	C677.657959,693.052917 678.807678,690.076538 680.412476,687.385010 
	C682.392822,684.063660 683.696838,680.815186 684.125854,676.786011 
	C684.682617,671.557556 688.569580,667.523010 692.023621,663.721313 
	C700.922974,653.926270 711.083862,645.698486 722.599670,639.020691 
	C734.835876,631.925049 746.398621,623.643188 759.734436,618.546143 
	C773.242554,613.383179 786.657043,607.634583 801.101501,605.878235 
	C810.461060,604.740173 820.018127,605.226013 829.982971,604.987305 
M695.642639,667.152100 
	C693.614624,669.854065 691.586609,672.556030 689.558655,675.258057 
	C697.284607,670.269470 702.221375,662.867615 708.096130,656.309937 
	C707.575562,655.798645 707.054993,655.287354 706.534363,654.776062 
	C703.062683,658.726379 699.591003,662.676697 695.642639,667.152100 
z"/>
<path fill="#000000" opacity="1.000000" stroke="none" 
	d="
M899.226562,585.425537 
	C896.065674,584.483398 897.674927,581.057312 895.664795,579.618103 
	C894.521301,581.309021 896.063721,582.928955 895.494568,584.685303 
	C892.803162,584.780640 890.565002,583.461304 888.102722,581.680420 
	C888.102722,585.360474 888.167236,588.488403 888.076538,591.611816 
	C888.028503,593.262878 887.943665,595.352112 885.811707,595.485901 
	C883.526550,595.629211 883.368591,593.374695 883.324890,591.841370 
	C883.101746,584.017456 882.416992,576.123840 883.178894,568.381104 
	C883.782898,562.243591 881.583069,556.670410 881.627869,550.652100 
	C881.822571,524.533447 881.383911,498.384644 878.796814,472.383453 
	C876.816711,452.483185 875.783813,432.598541 875.474915,412.614502 
	C875.359558,405.157166 875.845886,397.658325 875.060791,390.198212 
	C874.836975,388.072113 874.547729,385.601929 876.826660,384.348236 
	C879.476929,382.890259 880.571899,385.533539 882.157715,386.820923 
	C882.514954,387.110962 883.046387,387.186493 883.458313,387.345551 
	C885.338135,386.451111 884.785034,384.776093 884.880737,383.370361 
	C885.038696,381.050293 884.735657,378.058563 887.936646,378.051880 
	C891.498901,378.044434 891.120605,381.266785 891.153076,383.705322 
	C891.203979,387.536377 891.010620,391.370514 891.054504,395.201843 
	C891.193787,407.360443 892.529907,419.483734 892.152954,431.659912 
	C892.127563,432.479462 892.026123,433.813171 892.446106,434.051605 
	C897.802490,437.092468 894.940857,441.962250 895.040588,446.004822 
	C895.295227,456.331238 895.394836,466.674591 895.101135,476.998199 
	C894.724792,490.229492 897.593628,503.135834 898.597595,516.228699 
	C899.764954,531.453308 902.979980,546.496643 902.354431,561.904114 
	C902.105408,568.038635 902.611389,574.206726 902.850342,580.356567 
	C902.948914,582.893799 902.747131,585.105164 899.226562,585.425537 
z"/>
<path fill="#000000" opacity="1.000000" stroke="none" 
	d="
M817.128052,391.228912 
	C817.639954,398.336121 815.573792,405.223358 819.198669,412.716125 
	C819.198669,406.892487 819.260925,402.198669 819.173950,397.507599 
	C819.126709,394.957001 818.733398,391.898163 821.903320,391.391998 
	C825.305603,390.848724 825.666199,394.001770 825.961060,396.482941 
	C827.372498,408.356689 828.099792,420.348083 830.199463,432.095825 
	C834.074219,453.776093 831.530090,475.552216 832.001709,497.267426 
	C832.381592,514.759277 834.330566,532.153503 834.424744,549.652405 
	C834.449402,554.233093 837.706055,559.223755 836.106934,563.339600 
	C832.669861,572.186401 835.139038,581.040955 834.330322,589.825867 
	C834.196289,591.281616 834.405945,592.903381 832.228516,593.694214 
	C826.060608,588.564697 832.089844,577.673401 823.288452,573.123718 
	C820.911072,577.468933 823.490356,581.784851 821.857849,586.045837 
	C816.944580,583.901672 815.973145,579.585510 816.492371,575.689331 
	C817.851929,565.487000 813.435608,556.059570 813.306152,546.038025 
	C813.229248,540.087769 812.805664,534.078918 812.874634,528.103821 
	C813.045715,513.290955 813.833496,498.402924 813.429016,483.681396 
	C812.725586,458.078979 813.949829,432.393433 811.119080,406.843384 
	C810.535034,401.571228 810.803650,396.190857 810.889465,390.863739 
	C810.935913,387.984070 810.441162,383.686554 814.374695,383.790283 
	C818.098938,383.888519 816.828308,388.114014 817.128052,391.228912 
z"/>
<path fill="#000000" opacity="1.000000" stroke="none" 
	d="
M756.700195,411.825531 
	C757.159302,409.374390 757.741821,407.297485 760.430115,407.682739 
	C762.652466,408.001251 763.168518,409.916656 763.185425,411.855499 
	C763.311890,426.343689 766.291016,440.509979 768.146729,454.794037 
	C769.565918,465.717529 769.703796,476.708160 769.971802,487.632019 
	C770.547424,511.095856 770.019897,534.585754 770.053833,558.064880 
	C770.059082,561.706787 770.640625,565.348328 770.963806,568.989258 
	C771.100647,570.530945 771.200134,572.248230 769.437744,572.789490 
	C767.557068,573.367004 766.461426,571.662231 766.279663,570.327637 
	C765.591370,565.275635 759.585632,563.079224 759.945374,556.881714 
	C760.074524,554.656372 754.201294,551.861267 751.690186,548.486877 
	C749.770264,545.906799 748.782471,543.507446 748.744324,540.345215 
	C748.448914,515.863647 750.295471,491.477081 751.549988,467.054871 
	C752.309326,452.273224 751.901489,437.417511 751.598633,422.603638 
	C751.503662,417.959015 751.959045,414.243195 756.700195,411.825531 
z"/>
</svg>